<svg width="224" height="222" viewBox="0 0 224 222" fill="none" xmlns="http://www.w3.org/2000/svg">
<rect width="224" height="222" fill="black"/>
<path d="M135 91.8667C122.992 91.8667 113.222 101.677 113.222 113.733C113.222 125.79 122.992 135.6 135 135.6C147.008 135.6 156.778 125.79 156.778 113.733C156.778 101.677 147.008 91.8667 135 91.8667ZM135 119.2C131.997 119.2 129.556 116.748 129.556 113.733C129.556 110.718 131.997 108.267 135 108.267C138.003 108.267 140.444 110.718 140.444 113.733C140.444 116.748 138.003 119.2 135 119.2ZM140.496 104.35C139.636 103.841 138.71 103.448 137.722 103.188V97.5793C140.197 98.0003 142.483 98.9733 144.449 100.381L140.496 104.35ZM132.278 103.188C131.29 103.445 130.361 103.839 129.504 104.35L125.551 100.381C127.517 98.9733 129.803 98.0003 132.278 97.5793V103.188ZM125.655 108.215C125.148 109.078 124.756 110.008 124.498 111H118.912C119.331 108.515 120.3 106.219 121.699 104.246L125.655 108.215ZM124.498 116.467C124.753 117.459 125.146 118.391 125.655 119.252L121.702 123.221C120.3 121.247 119.331 118.951 118.912 116.467H124.498ZM129.504 123.117C130.364 123.625 131.29 124.019 132.278 124.279V129.887C129.803 129.466 127.517 128.493 125.551 127.086L129.504 123.117ZM137.722 124.279C138.71 124.022 139.639 123.628 140.496 123.117L144.449 127.086C142.483 128.493 140.197 129.466 137.722 129.887V124.279ZM144.345 119.252C144.852 118.388 145.244 117.459 145.502 116.467H151.088C150.669 118.951 149.7 121.247 148.301 123.221L144.345 119.252ZM145.502 111C145.246 110.008 144.854 109.076 144.345 108.215L148.298 104.246C149.7 106.219 150.669 108.515 151.088 111H145.502Z" fill="white"/>
<path d="M105.055 113.733C105.055 103.183 96.5049 94.6 85.9999 94.6C75.4948 94.6 66.9443 103.183 66.9443 113.733C66.9443 124.284 75.4948 132.867 85.9999 132.867C96.5049 132.867 105.055 124.284 105.055 113.733ZM72.3888 113.733C72.3888 106.198 78.4947 100.067 85.9999 100.067C93.5051 100.067 99.611 106.198 99.611 113.733C99.611 121.269 93.5051 127.4 85.9999 127.4C78.4947 127.4 72.3888 121.269 72.3888 113.733Z" fill="white"/>
<path d="M94.1668 113.733C94.1668 109.212 90.5027 105.533 86.0002 105.533C81.4976 105.533 77.8335 109.212 77.8335 113.733C77.8335 118.254 81.4976 121.933 86.0002 121.933C90.5027 121.933 94.1668 118.254 94.1668 113.733ZM83.2779 113.733C83.2779 112.227 84.4975 111 86.0002 111C87.5028 111 88.7224 112.227 88.7224 113.733C88.7224 115.239 87.5028 116.467 86.0002 116.467C84.4975 116.467 83.2779 115.239 83.2779 113.733Z" fill="white"/>
<path d="M132.278 152H88.7222C87.2168 152 86 153.225 86 154.733V165.667C86 167.175 87.2168 168.4 88.7222 168.4H132.278C133.783 168.4 135 167.175 135 165.667V154.733C135 153.225 133.783 152 132.278 152ZM113.222 157.467H118.667V162.933H113.222V157.467ZM107.778 162.933H102.333V157.467H107.778V162.933ZM91.4444 157.467H96.8889V162.933H91.4444V157.467ZM129.556 162.933H124.111V157.467H129.556V162.933Z" fill="white"/>
<path d="M175.833 100.067H172.363L173.108 81.0427C173.138 80.2992 172.863 79.5749 172.352 79.0419C171.837 78.5034 171.129 78.2 170.389 78.2H151.333V67.2667H157.279C158.406 70.4401 161.4 72.7333 164.944 72.7333C169.447 72.7333 173.111 69.0543 173.111 64.5333C173.111 60.0124 169.447 56.3333 164.944 56.3333C161.4 56.3333 158.406 58.6266 157.279 61.8H148.611C147.106 61.8 145.889 63.0245 145.889 64.5333V78.2H113.222V72.7333H135C136.505 72.7333 137.722 71.5088 137.722 70V50.8667H143.167V53.6C143.167 55.1088 144.384 56.3333 145.889 56.3333H156.778C158.283 56.3333 159.5 55.1088 159.5 53.6V42.6667C159.5 41.1579 158.283 39.9333 156.778 39.9333H145.889C144.384 39.9333 143.167 41.1579 143.167 42.6667V45.4H135C133.495 45.4 132.278 46.6245 132.278 48.1333V67.2667H113.222V59.0667H124.111C125.617 59.0667 126.833 57.8421 126.833 56.3333V44.8971C129.994 43.7655 132.278 40.7588 132.278 37.2C132.278 32.6791 128.614 29 124.111 29C119.609 29 115.944 32.6791 115.944 37.2C115.944 40.7588 118.228 43.7655 121.389 44.8971V53.6H113.222V46.6163C113.222 36.9021 105.35 29 95.6775 29H95.3808C86.1143 29 78.5221 36.2543 77.8959 45.4H76.3524C68.1613 45.4 61.5 52.0885 61.5 60.3103V62.3549C55.2307 64.1015 50.6111 69.8688 50.6111 76.7103V78.2C49.8707 78.2 49.1629 78.5034 48.6484 79.0391C48.1366 79.5749 47.8617 80.2965 47.8916 81.0399L48.6375 100.067H45.1667C40.6641 100.067 37 103.746 37 108.267V130.133C37 134.654 40.6641 138.333 45.1667 138.333H50.7309C53.6273 169.176 79.3687 193 110.5 193C141.62 193 167.359 169.19 170.266 138.333H175.833C180.336 138.333 184 134.654 184 130.133V108.267C184 103.746 180.336 100.067 175.833 100.067ZM164.944 61.8C166.447 61.8 167.667 63.0273 167.667 64.5333C167.667 66.0394 166.447 67.2667 164.944 67.2667C163.442 67.2667 162.222 66.0394 162.222 64.5333C162.222 63.0273 163.442 61.8 164.944 61.8ZM148.611 45.4H154.056V50.8667H148.611V45.4ZM124.111 34.4667C125.614 34.4667 126.833 35.6939 126.833 37.2C126.833 38.7061 125.614 39.9333 124.111 39.9333C122.608 39.9333 121.389 38.7061 121.389 37.2C121.389 35.6939 122.608 34.4667 124.111 34.4667ZM178.556 108.267V111H167.667V105.533H169.531H175.833C177.336 105.533 178.556 106.761 178.556 108.267ZM167.667 116.467H178.556V121.933H167.667V116.467ZM56.0556 76.7103C56.0556 71.5033 60.275 67.2667 65.4608 67.2667H69.6667V61.8H66.9444V60.3103C66.9444 55.1033 71.1639 50.8667 76.3497 50.8667H88.7222V45.4H83.4003C84.0182 39.2773 89.1224 34.4667 95.3781 34.4667H95.6748C102.35 34.4667 107.778 39.9169 107.778 46.6163V78.2H56.0556V76.7103ZM45.1667 105.533H51.4686H53.3333V111H42.4444V108.267C42.4444 106.761 43.664 105.533 45.1667 105.533ZM53.3333 121.933H42.4444V116.467H53.3333V121.933ZM42.4444 130.133V127.4H53.3333V132.867H53.1891H45.1667C43.664 132.867 42.4444 131.639 42.4444 130.133ZM110.5 187.533C82.3931 187.533 59.0554 166.2 56.1345 138.333C56.3387 138.328 56.5183 138.251 56.7062 138.202C56.8504 138.167 57.0056 138.161 57.139 138.104C57.335 138.019 57.4929 137.877 57.6644 137.748C57.7706 137.666 57.8985 137.614 57.9911 137.519C58.1517 137.355 58.2578 137.15 58.3722 136.95C58.4321 136.849 58.5192 136.767 58.5654 136.658C58.7016 136.33 58.7778 135.974 58.7778 135.6V102.8C58.7778 101.291 57.5609 100.067 56.0556 100.067H54.0847L53.4422 83.6667H110.5H167.558L166.915 100.067H164.944C163.439 100.067 162.222 101.291 162.222 102.8V135.6C162.222 135.974 162.298 136.33 162.435 136.655C162.484 136.77 162.573 136.857 162.639 136.964C162.753 137.158 162.854 137.36 163.012 137.519C163.112 137.623 163.249 137.683 163.368 137.768C163.529 137.888 163.679 138.022 163.864 138.104C164.003 138.164 164.163 138.169 164.316 138.205C164.498 138.251 164.672 138.328 164.871 138.333C162.01 166.142 138.645 187.533 110.5 187.533ZM175.833 132.867H167.811H167.667V127.4H178.556V130.133C178.556 131.639 177.336 132.867 175.833 132.867Z" fill="white"/>
<path d="M96.8889 61.8H91.4444V67.2667H86V72.7333H102.333V67.2667H96.8889V61.8Z" fill="white"/>
<path d="M102.333 50.8667H96.8889V56.3333H102.333V50.8667Z" fill="white"/>
<path d="M83.2779 56.3333H77.8335V61.8H83.2779V56.3333Z" fill="white"/>
<path d="M80.5555 67.2667H75.1111V72.7333H80.5555V67.2667Z" fill="white"/>
</svg>
